<?xml version="1.0" encoding="utf-8"?>
<!-- Generator: Adobe Illustrator 17.1.0, SVG Export Plug-In . SVG Version: 6.00 Build 0)  -->
<!DOCTYPE svg PUBLIC "-//W3C//DTD SVG 1.1//EN" "http://www.w3.org/Graphics/SVG/1.1/DTD/svg11.dtd">
<svg version="1.1" id="Layer_1" xmlns="http://www.w3.org/2000/svg" xmlns:xlink="http://www.w3.org/1999/xlink" x="0px" y="0px"
	 viewBox="0 0 612 612" enable-background="new 0 0 612 612" xml:space="preserve">
<g id="solid" sodipodi:docname="blogger_logo.svg" inkscape:version="0.48.1 r9760" xmlns:svg="http://www.w3.org/2000/svg" xmlns:sodipodi="http://sodipodi.sourceforge.net/DTD/sodipodi-0.dtd" xmlns:rdf="http://www.w3.org/1999/02/22-rdf-syntax-ns#" xmlns:dc="http://purl.org/dc/elements/1.1/" xmlns:cc="http://creativecommons.org/ns#" xmlns:inkscape="http://www.inkscape.org/namespaces/inkscape">
	<path id="bg" fill="#FF5722" d="M612,510c0,56.1-45.9,102-102,102H102C45.9,612,0,566.1,0,510V102C0,45.9,45.9,0,102,0h408
		c56.1,0,102,45.9,102,102V510z"/>
	<g id="B" enable-background="new    ">
		<path fill="#FFFFFF" d="m 483.32742,262.81768 c -7.88887,-3.44838 -41.73045,0.38183 -51.13171,-8.29282 -6.63342,-6.25243 -7.05677,-17.56407 -9.6465,-32.65819 -4.33566,-25.27222 -6.14292,-30.99964 -10.65377,-40.95102 -16.41131,-35.46224 -55.75058,-65.82947 -91.48993,-65.82947 l -82.8361,0 c -65.17519,0 -118.42655,54.35078 -118.42655,120.6814 l 0,140.71541 c 0,66.2113 53.25136,120.43083 118.42655,120.43083 l 136.10207,0 c 65.17226,0 118.06159,-54.21953 118.43823,-120.43083 l 0.74743,-97.4615 c 0,0 0,-12.05144 -9.52972,-16.20381 m -244.26024,-49.11258 65.67737,0 c 12.5311,0 22.68271,10.33321 22.68271,22.95738 0,12.63611 -10.15161,23.08864 -22.68271,23.08864 l -65.67737,0 c -12.53111,0 -22.6827,-10.45253 -22.6827,-23.08864 0.003,-12.62417 10.15451,-22.95738 22.6827,-22.95738 m 133.47731,183.9574 -133.47731,0 c -12.53111,0 -22.6827,-10.46447 -22.6827,-22.95739 0,-12.6361 10.15159,-22.96932 22.6827,-22.96932 l 133.47731,0 c 12.40265,0 22.55132,10.33322 22.55132,22.96932 0.003,12.49292 -10.14867,22.95739 -22.55132,22.95739"/>
	</g>
</g>
</svg>
